<svg xmlns="http://www.w3.org/2000/svg" width="38" height="17" fill="none"><path fill="#B8BEDD" d="M24.194.176c-.421.225-.778.647-.912 1.08-.112.359-.112.503-.016.856.208.743.539 1.037 1.818 1.604.859.374 3.503 1.695 3.679 1.828.032.022.186.107.341.193.555.289 1.429.78 1.765 1 .043.032.133.08.202.107.075.032.107.08.086.112-.038.07-1.173.037-2.234-.059-.293-.027-2.09-.075-3.999-.112-2.65-.048-3.876-.048-5.224 0-.965.032-2.133.059-2.586.059-.453 0-1.067.026-1.36.053-.293.032-1.13.075-1.866.102-.73.026-1.37.064-1.412.08-.043.016-.486.059-.987.085-.496.032-1.338.091-1.866.134-.528.043-1.274.096-1.658.128-.39.032-.81.08-.933.107-.128.032-.4.06-.608.06-.202 0-.538.026-.746.058-.203.027-.613.075-.906.101-.294.027-.64.07-.773.102a2.903 2.903 0 0 1-.56.059 4.96 4.96 0 0 0-.736.08 4.84 4.84 0 0 1-.693.08c-.512 0-1.082.214-1.434.546-.33.31-.576.855-.576 1.288 0 .481.395 1.176.8 1.406.101.054.229.134.282.182.08.064.262.075.912.07.448-.006.906-.032 1.024-.065.117-.032.463-.08.767-.112.31-.032.875-.09 1.253-.133.384-.043.992-.102 1.36-.134.368-.027.789-.075.933-.102.149-.027.543-.064.88-.085a8.04 8.04 0 0 0 .852-.08c.134-.027.432-.049.667-.054.234 0 .714-.037 1.066-.08.352-.043.859-.08 1.13-.08.267 0 .667-.027.885-.054.219-.032.933-.08 1.59-.107.655-.032 1.759-.08 2.446-.112 1.621-.075 9.81-.075 11.25.005.602.032 1.599.08 2.212.113 1.418.07 1.706.101 1.706.208 0 .043-.048.086-.107.096-.058.011-.175.048-.266.091-.085.038-.245.107-.347.15l-.506.22c-.832.373-.933.416-1.237.534-.555.208-.693.267-.853.331-.09.043-.083.046-.343.127.15-.06-.077.034 0 0-.104.045-.1.04-.164.071-.069.016-.255.08-.415.144a6.21 6.21 0 0 1-.454.16 6.314 6.314 0 0 0-.703.252.956.956 0 0 1-.224.07.452.452 0 0 0-.155.048c-.096.053-1.055.353-1.306.411-.08.017-.161.042-.177.069-.045.012-.06.04-.129.055-.144 0-.755.31-.91.454-.437.417-.554.7-.554 1.315 0 .369.027.508.128.722.15.31.656.818.853.86.075.017.192.054.261.08.155.06.885.065 1.013 0 .139-.069.443-.17.65-.218.102-.022.273-.075.374-.107.101-.038.272-.096.373-.134.101-.037.33-.112.506-.166a2.4 2.4 0 0 0 .374-.133c.032-.016.234-.091.453-.155.218-.065.421-.14.453-.166a.231.231 0 0 1 .144-.048c.048 0 .17-.032.267-.075.096-.043.271-.112.389-.155.34-.129.682-.262.863-.337a.807.807 0 0 1 .224-.075c.059 0 .107-.021.422-.176a1.1 1.1 0 0 1 .229-.091c.026 0 .208-.075.405-.166.528-.235.661-.294.869-.385.565-.235.832-.363 1.413-.657 1.14-.578 2.026-1.118 2.452-1.487.09-.08.272-.23.405-.342.134-.107.32-.294.41-.417.092-.118.23-.289.305-.374.474-.54.73-1.658.533-2.315-.15-.498-.25-.754-.299-.754-.026 0-.048-.032-.048-.07-.005-.144-.538-.877-.991-1.342a16.672 16.672 0 0 0-1.227-1.058 5.175 5.175 0 0 1-.394-.31 8.414 8.414 0 0 0-.426-.294c-.22-.15-.411-.278-.427-.3a4.635 4.635 0 0 0-.373-.235 4.635 4.635 0 0 1-.373-.235c-.032-.043-.208-.15-.347-.22a4.948 4.948 0 0 1-.267-.16 2.545 2.545 0 0 0-.24-.144 3.393 3.393 0 0 1-.373-.225c-.288-.187-.549-.337-1.093-.62a18.273 18.273 0 0 1-.533-.294 7.466 7.466 0 0 0-.533-.294c-.144-.075-.304-.155-.346-.182a1.118 1.118 0 0 0-.16-.08 1.011 1.011 0 0 1-.17-.086c-.171-.096-.273-.15-.923-.47a37.64 37.64 0 0 0-.96-.465c-.176-.08-.485-.225-.693-.321C25.591.085 25.34 0 24.892 0c-.304 0-.41.027-.698.176Z"/></svg>