<svg width="26" height="26" viewBox="0 0 26 26" fill="none" xmlns="http://www.w3.org/2000/svg">
<circle cx="13" cy="13" r="13" fill="#DCCD43"/>
<path d="M5.59091 13.1136V12.4091C6.22348 12.4091 6.66477 12.2765 6.91477 12.0114C7.16856 11.7462 7.29545 11.303 7.29545 10.6818V8.86364C7.29545 8.34091 7.3447 7.88826 7.44318 7.50568C7.54545 7.12311 7.71023 6.80682 7.9375 6.55682C8.16477 6.30682 8.4678 6.12121 8.84659 6C9.22538 5.87879 9.69318 5.81818 10.25 5.81818V6.93182C9.81061 6.93182 9.46402 7 9.21023 7.13636C8.96023 7.27273 8.7822 7.48485 8.67614 7.77273C8.57386 8.05682 8.52273 8.42045 8.52273 8.86364V11.1364C8.52273 11.4318 8.48295 11.7008 8.40341 11.9432C8.32765 12.1856 8.18561 12.3939 7.97727 12.5682C7.76894 12.7424 7.47159 12.8769 7.08523 12.9716C6.70265 13.0663 6.20455 13.1136 5.59091 13.1136ZM10.25 20.3636C9.69318 20.3636 9.22538 20.303 8.84659 20.1818C8.4678 20.0606 8.16477 19.875 7.9375 19.625C7.71023 19.375 7.54545 19.0587 7.44318 18.6761C7.3447 18.2936 7.29545 17.8409 7.29545 17.3182V15.5C7.29545 14.8788 7.16856 14.4356 6.91477 14.1705C6.66477 13.9053 6.22348 13.7727 5.59091 13.7727V13.0682C6.20455 13.0682 6.70265 13.1155 7.08523 13.2102C7.47159 13.3049 7.76894 13.4394 7.97727 13.6136C8.18561 13.7879 8.32765 13.9962 8.40341 14.2386C8.48295 14.4811 8.52273 14.75 8.52273 15.0455V17.3182C8.52273 17.7614 8.57386 18.125 8.67614 18.4091C8.7822 18.6932 8.96023 18.9034 9.21023 19.0398C9.46402 19.1799 9.81061 19.25 10.25 19.25V20.3636ZM5.59091 13.7727V12.4091H6.93182V13.7727H5.59091ZM20.5014 13.0682V13.7727C19.8688 13.7727 19.4257 13.9053 19.1719 14.1705C18.9219 14.4356 18.7969 14.8788 18.7969 15.5V17.3182C18.7969 17.8409 18.7457 18.2936 18.6435 18.6761C18.545 19.0587 18.3821 19.375 18.1548 19.625C17.9276 19.875 17.6245 20.0606 17.2457 20.1818C16.867 20.303 16.3991 20.3636 15.8423 20.3636V19.25C16.2817 19.25 16.6264 19.1799 16.8764 19.0398C17.1302 18.9034 17.3082 18.6932 17.4105 18.4091C17.5166 18.125 17.5696 17.7614 17.5696 17.3182V15.0455C17.5696 14.75 17.6075 14.4811 17.6832 14.2386C17.7628 13.9962 17.9067 13.7879 18.1151 13.6136C18.3234 13.4394 18.6188 13.3049 19.0014 13.2102C19.3878 13.1155 19.8878 13.0682 20.5014 13.0682ZM15.8423 5.81818C16.3991 5.81818 16.867 5.87879 17.2457 6C17.6245 6.12121 17.9276 6.30682 18.1548 6.55682C18.3821 6.80682 18.545 7.12311 18.6435 7.50568C18.7457 7.88826 18.7969 8.34091 18.7969 8.86364V10.6818C18.7969 11.303 18.9219 11.7462 19.1719 12.0114C19.4257 12.2765 19.8688 12.4091 20.5014 12.4091V13.1136C19.8878 13.1136 19.3878 13.0663 19.0014 12.9716C18.6188 12.8769 18.3234 12.7424 18.1151 12.5682C17.9067 12.3939 17.7628 12.1856 17.6832 11.9432C17.6075 11.7008 17.5696 11.4318 17.5696 11.1364V8.86364C17.5696 8.42045 17.5166 8.05682 17.4105 7.77273C17.3082 7.48485 17.1302 7.27273 16.8764 7.13636C16.6264 7 16.2817 6.93182 15.8423 6.93182V5.81818ZM20.5014 12.4091V13.7727H19.1605V12.4091H20.5014Z" fill="black"/>
</svg>
