<svg width="26" height="26" viewBox="0 0 26 26" fill="none" xmlns="http://www.w3.org/2000/svg">
<circle cx="13" cy="13" r="13" fill="#F0E6EF"/>
<path d="M12.9988 9.09734C14.0751 9.09734 14.9476 8.22497 14.9476 7.14874C14.9476 6.07251 14.0751 5.19995 12.9988 5.19995C11.9226 5.19995 11.05 6.07232 11.05 7.14855C11.05 8.22478 11.9226 9.09734 12.9988 9.09734ZM12.9988 10.8574C11.9226 10.8574 11.05 11.7297 11.05 12.806C11.05 13.8822 11.9226 14.7547 12.9988 14.7547C14.0751 14.7547 14.9476 13.8824 14.9476 12.8061C14.9476 11.7299 14.0751 10.8574 12.9988 10.8574ZM12.9988 16.5776C11.9226 16.5776 11.05 17.4499 11.05 18.5262C11.05 19.6024 11.9226 20.475 12.9988 20.475C14.0751 20.475 14.9476 19.6026 14.9476 18.5264C14.9476 17.4501 14.0751 16.5776 12.9988 16.5776Z" fill="#392F5A"/>
</svg>
